<?xml version="1.0" standalone="no"?><!-- Generator: Adobe Fireworks CS6, Export SVG Extension by Aaron Beall (http://fireworks.abeall.com) . Version: 0.6.1  --><!DOCTYPE svg PUBLIC "-//W3C//DTD SVG 1.1//EN" "http://www.w3.org/Graphics/SVG/1.1/DTD/svg11.dtd"><svg id="hauptstartseite-logo-Seite%201" viewBox="0 0 252 58" style="background-color:#ffffff00" version="1.1"	xmlns="http://www.w3.org/2000/svg" xmlns:xlink="http://www.w3.org/1999/xlink" xml:space="preserve"	x="0px" y="0px" width="252px" height="58px">	<g>		<path d="M 53.1605 26.8077 C 53.1605 22.9065 55.717 20.0485 60.3195 20.0485 L 67.8289 20.0485 L 67.8289 33.7495 L 60.3195 33.7495 C 55.717 33.7495 53.1605 30.7079 53.1605 26.8077 L 53.1605 26.8077 ZM 217.2526 36.2841 C 212.0117 36.2841 209.0713 32.5594 209.0713 28.1298 C 209.0713 23.6345 212.0117 19.9757 217.2526 19.9757 L 224.1024 19.9757 L 224.1024 36.2841 L 217.2526 36.2841 ZM 178.223 36.3496 C 172.9812 36.3496 170.0405 32.5594 170.0405 28.1298 C 170.0405 23.6345 172.9812 19.9757 178.223 19.9757 L 185.2892 19.9757 L 185.2892 36.3496 L 178.223 36.3496 ZM 133.4531 45.5851 L 133.4531 20.097 L 140.2233 20.097 C 144.275 20.097 146.2419 22.0954 146.2419 25.5638 L 146.2419 45.5851 L 156.5011 45.5851 L 156.5011 24.4497 C 156.5011 17.0443 151.9205 10.6755 141.4855 10.6755 L 123.1931 10.6755 L 123.1931 45.5851 L 133.4531 45.5851 ZM 107.9447 32.0465 L 118.4771 18.5614 L 118.4771 10.6755 L 100.2471 10.6755 C 88.6792 10.6755 81.0724 17.8159 81.0724 28.1298 C 81.0724 38.2455 88.1682 45.5851 99.9913 45.5851 L 118.9894 45.5851 L 118.9894 36.3496 L 99.7694 36.3496 C 94.5288 36.3496 91.588 32.5594 91.588 28.1298 C 91.588 23.6345 94.5288 19.9757 99.7694 19.9757 L 106.0291 19.9757 L 97.1021 32.0465 L 107.9447 32.0465 ZM 234.3618 45.5851 L 234.3618 10.6755 L 217.7301 10.6755 C 206.1614 10.6755 198.5553 17.8159 198.5553 28.1298 C 198.5553 38.2455 205.6503 45.5851 217.4742 45.5851 L 234.3618 45.5851 ZM 195.5483 45.5851 L 195.5483 1 L 185.2892 1 L 185.2892 10.6755 L 178.6996 10.6755 C 167.1311 10.6755 159.5256 17.8159 159.5256 28.1298 C 159.5256 38.2455 166.6207 45.5851 178.4448 45.5851 L 195.5483 45.5851 ZM 64.027 57 C 73.9344 57 78.0886 51.57 78.0886 44.1657 L 78.0886 10.6755 L 60.0302 10.6755 C 49.4839 10.6755 42.645 17.419 42.645 26.8077 C 42.645 36.1961 49.4839 42.9398 60.0302 42.9398 L 67.8289 42.9398 L 67.8289 44.2834 C 67.8289 46.5975 66.423 47.9855 63.9941 47.9855 L 46.4805 47.9855 L 46.4805 57 L 64.027 57 Z" fill="#d30134"/>		<path d="M 240.4785 20.9898 L 251 20.9898 L 251 10.6755 L 240.4785 10.6755 L 240.4785 20.9898 ZM 240.4785 45.5851 L 251 45.5851 L 251 35.2696 L 240.4785 35.2696 L 240.4785 45.5851 Z" fill="#d30134"/>		<path d="M 11.2251 19.6917 C 11.2251 13.4105 14.928 10.5645 20.1511 10.5645 C 25.2419 10.5645 29.2827 13.4105 29.2827 19.6917 L 29.2827 24.4882 L 11.2251 24.4882 L 11.2251 19.6917 ZM 20.1511 1 C 7.4249 1 1 8.6387 1 19.9117 L 1 45.5851 L 11.2251 45.5851 L 11.2251 34.0575 L 29.2827 34.0575 L 29.2827 45.5851 L 39.5288 45.5851 L 39.5288 19.9117 C 39.5288 8.9896 32.5676 1 20.1511 1 L 20.1511 1 Z" fill="#d30134"/>	</g></svg>